# xmcd CD database file
#
# Track frame offsets:
#	150
#	17190
#	28662
#	47490
#	58625
#	68695
#	82692
#	92737
#	103427
#	122185
#	139147
#	149922
#	158705
#	170242
#	181800
#	198765
#	213430
#	232595
#	242734
#	253302
#
# Disc length: 3575 seconds
#
# Revision: 0
# Processed by: cddbd v1.5.2PL0 Copyright (c) Steve Scherf et al.
# Submitted via: CDex 1.70beta1
#
DISCID=1c0df514
DTITLE=野口ジュディー - 耳から学ぶ工学英語
DYEAR=2009
DGENRE=Salsa
TTITLE0=Loanword Stress and Pronunciation
TTITLE1=Word Stress and Meaning
TTITLE2=Compound Word Stress
TTITLE3=Sentence Stress
TTITLE4=Numbers and Equations
TTITLE5=Fractions and Decimals
TTITLE6=Powers and Roots
TTITLE7=Greek Alphabet
TTITLE8=Geometric Figures
TTITLE9=Three-dimentional Figures
TTITLE10=Shapes and Forms
TTITLE11=Graphs and Tables
TTITLE12=Flow Charts
TTITLE13=Physical Terms
TTITLE14=Electric and Electronic Circuits
TTITLE15=Telecommunications
TTITLE16=Machine Elements and Design
TTITLE17=Infomation Scinece
TTITLE18=Statistics Terms
TTITLE19=Colors and Textures
EXTD=YEAR: 2009
EXTT0=
EXTT1=
EXTT2=
EXTT3=
EXTT4=
EXTT5=
EXTT6=
EXTT7=
EXTT8=
EXTT9=
EXTT10=
EXTT11=
EXTT12=
EXTT13=
EXTT14=
EXTT15=
EXTT16=
EXTT17=
EXTT18=
EXTT19=
PLAYORDER=
